<svg width="512" height="512" viewBox="0 0 512 512" fill="none" xmlns="http://www.w3.org/2000/svg">
<g clip-path="url(#clip0_4_205)">
<path d="M0 120.009C0 53.7344 53.7258 0.00854492 120 0.00854492H392C458.274 0.00854492 512 53.7344 512 120.009V392.009C512 458.283 458.274 512.009 392 512.009H120C53.7258 512.009 0 458.283 0 392.009V120.009Z" fill="white"/>
<path d="M346.148 225.145L380.271 191.023C303.148 113.901 207.32 113.901 130.198 191.023L164.321 225.145C222.975 166.491 287.534 166.491 346.188 225.145H346.148Z" fill="#202020"/>
<path d="M334.779 304.648L255.2 225.069L175.621 304.648L96.0413 225.069L61.9585 259.151L175.621 372.853L255.2 293.274L334.779 372.853L448.441 259.151L414.358 225.069L334.779 304.648Z" fill="#202020"/>
</g>
<defs>
<clipPath id="clip0_4_205">
<path d="M0 120.009C0 53.7344 53.7258 0.00854492 120 0.00854492H392C458.274 0.00854492 512 53.7344 512 120.009V392.009C512 458.283 458.274 512.009 392 512.009H120C53.7258 512.009 0 458.283 0 392.009V120.009Z" fill="white"/>
</clipPath>
</defs>
</svg>
